<svg width="120" height="21" viewBox="0 0 120 21" fill="none" xmlns="http://www.w3.org/2000/svg">
<path d="M0 14.0401L5.00251 14.0418V12.8998H1.04461V6.83899H0V14.0401Z" fill="white"/>
<path d="M0 0V5.79236H1.04461V1.04459H19.6596V5.79236H20.7059V0H0Z" fill="white"/>
<path d="M20.7061 14.0418L19.0665 10.9764C19.5555 10.8738 19.9538 10.6174 20.2616 10.2105C20.5693 9.80185 20.7129 9.34022 20.6924 8.82561V8.81538C20.6599 8.26658 20.4496 7.79981 20.0632 7.41513C19.6769 7.03045 19.2152 6.83899 18.6801 6.83899H15.1992V14.0435H16.3003V11.0072H17.9535L19.6033 14.0418H20.7061ZM18.6801 9.87537H16.3003V7.98104H18.6904C18.9417 7.98104 19.1571 8.07339 19.3349 8.25974C19.5127 8.44438 19.6033 8.66834 19.6033 8.92821C19.6033 9.18808 19.5144 9.41203 19.3349 9.59668C19.1571 9.78132 18.9417 9.87537 18.6904 9.87537H18.6801Z" fill="white"/>
<path d="M19.6596 15.0877V19.6594H1.04461V15.0877H0V20.7057H20.7059V15.0877H19.6596Z" fill="white"/>
<path d="M13.1841 6.83899L11.6676 12.5715L9.86217 6.83899H8.69276L7.14549 12.5715L5.35033 6.83899H4.15015L6.49069 14.0435H7.84988L9.30824 8.78458C9.30824 8.78458 9.30824 8.77944 9.30824 8.77773V8.78116L11.0128 14.0435H12.3617L14.3655 6.83899H13.1858H13.1841Z" fill="white"/>
<path d="M39.0448 5.17523H37.4634V15.5273H39.0448V5.17523Z" fill="white"/>
<path d="M64.8057 6.8165H68.0831V15.5273H69.6646V6.8165H72.942V5.17523H64.8057V6.8165Z" fill="white"/>
<path d="M29.5563 13.8861H29.558V5.17535H27.9766V15.5274H35.2444V13.8861H29.5563Z" fill="white"/>
<path d="M108.733 10.0183C109.174 9.43193 109.381 8.76859 109.354 8.03001V8.01461C109.306 7.22645 109.005 6.55626 108.449 6.00403C107.893 5.45181 107.23 5.17657 106.461 5.17657H101.458V15.5286H103.04V11.1656H105.192L107.815 15.5286H109.668L107.016 11.1211C107.719 10.9741 108.292 10.6065 108.735 10.0201L108.733 10.0183ZM106.461 9.53796H103.04V6.81613H106.474C106.835 6.81613 107.145 6.9495 107.401 7.21621C107.658 7.48292 107.786 7.8026 107.786 8.17702C107.786 8.55144 107.658 8.87288 107.401 9.13788C107.145 9.40459 106.835 9.53796 106.474 9.53796H106.461Z" fill="white"/>
<path d="M113.566 13.886V11.1642H119.27V9.53833H113.566V6.8165H119.577V5.17523H111.985V15.5273H119.68V13.886H113.566Z" fill="white"/>
<path d="M60.9067 9.53833H55.9179V5.17523H54.3364V15.5273H55.9179V11.1642H60.9067V15.5273H62.4745V5.17523H60.9067V9.53833Z" fill="white"/>
<path d="M87.578 5.17523L85.3982 13.4124L82.8046 5.17523H81.1223L78.8997 13.4124L76.3198 5.17523H74.5947L77.9576 15.5273H79.9101L82.0062 7.97053C82.0062 7.97053 82.0062 7.96372 82.0062 7.9603V7.96539L84.4561 15.5273H86.3949L89.274 5.17523H87.578Z" fill="white"/>
<path d="M93.4558 5.17523L89.209 15.5273H90.9477L91.9598 13.0432H96.6768L97.7026 15.5273H99.4414L95.1946 5.17523H93.4558ZM92.6591 11.3574L94.326 7.29692L95.9947 11.3574H92.6591Z" fill="white"/>
<path d="M45.8434 9.5387H51.3691V15.5277H46.6008C43.9542 15.5191 41.8137 13.5205 41.8069 11.0466V9.65494C41.8137 7.18275 43.9525 5.18415 46.6008 5.17731L51.2665 5.17389L51.2716 6.69035H46.6059C44.8467 6.69548 43.414 8.03244 43.4089 9.67715V11.0534C43.4123 12.6982 44.845 14.0078 46.6059 14.0112H49.8697V11.0466H45.8417V9.53699L45.8434 9.5387Z" fill="white"/>
</svg>
